<svg width="25" height="25" viewBox="0 0 25 25" fill="none" xmlns="http://www.w3.org/2000/svg">
<path d="M6.70611 18.2733C7.55611 17.6426 8.48211 17.1445 9.48411 16.779C10.4859 16.4137 11.5523 16.231 12.6831 16.231C13.8139 16.231 14.8803 16.4137 15.8821 16.779C16.8841 17.1445 17.8101 17.6426 18.6601 18.2733C19.2818 17.59 19.7744 16.799 20.1379 15.9003C20.5014 15.0016 20.6831 14.0285 20.6831 12.981C20.6831 10.7644 19.9039 8.87687 18.3456 7.31853C16.7873 5.7602 14.8998 4.98103 12.6831 4.98103C10.4664 4.98103 8.57894 5.7602 7.02061 7.31853C5.46227 8.87687 4.68311 10.7644 4.68311 12.981C4.68311 14.0285 4.86486 15.0016 5.22836 15.9003C5.59186 16.799 6.08444 17.59 6.70611 18.2733ZM12.6834 13.731C11.7704 13.731 11.0004 13.4177 10.3736 12.791C9.74661 12.1642 9.43311 11.3943 9.43311 10.4813C9.43311 9.56828 9.74644 8.79837 10.3731 8.17153C10.9999 7.54453 11.7699 7.23103 12.6829 7.23103C13.5959 7.23103 14.3658 7.54437 14.9926 8.17103C15.6196 8.79787 15.9331 9.56778 15.9331 10.4808C15.9331 11.3938 15.6198 12.1637 14.9931 12.7905C14.3663 13.4175 13.5964 13.731 12.6834 13.731ZM12.6831 22.481C11.3639 22.481 10.1264 22.233 8.97061 21.7368C7.81477 21.2406 6.80936 20.565 5.95436 19.7098C5.09919 18.8548 4.42352 17.8494 3.92736 16.6935C3.43119 15.5377 3.18311 14.3002 3.18311 12.981C3.18311 11.6619 3.43119 10.4244 3.92736 9.26853C4.42352 8.1127 5.09919 7.10728 5.95436 6.25228C6.80936 5.39712 7.81477 4.72145 8.97061 4.22528C10.1264 3.72912 11.3639 3.48103 12.6831 3.48103C14.0023 3.48103 15.2398 3.72912 16.3956 4.22528C17.5514 4.72145 18.5569 5.39712 19.4119 6.25228C20.267 7.10728 20.9427 8.1127 21.4389 9.26853C21.935 10.4244 22.1831 11.6619 22.1831 12.981C22.1831 14.3002 21.935 15.5377 21.4389 16.6935C20.9427 17.8494 20.267 18.8548 19.4119 19.7098C18.5569 20.565 17.5514 21.2406 16.3956 21.7368C15.2398 22.233 14.0023 22.481 12.6831 22.481ZM12.6831 20.981C13.5856 20.981 14.4558 20.8359 15.2936 20.5455C16.1314 20.255 16.8754 19.8489 17.5254 19.3273C16.8754 18.8246 16.1411 18.433 15.3226 18.1523C14.5039 17.8714 13.6241 17.731 12.6831 17.731C11.7421 17.731 10.8607 17.8698 10.0389 18.1473C9.21702 18.425 8.48436 18.8183 7.84086 19.3273C8.49086 19.8489 9.23477 20.255 10.0726 20.5455C10.9104 20.8359 11.7806 20.981 12.6831 20.981ZM12.6831 12.231C13.1806 12.231 13.5966 12.0637 13.9311 11.729C14.2658 11.3945 14.4331 10.9785 14.4331 10.481C14.4331 9.98353 14.2658 9.56753 13.9311 9.23303C13.5966 8.89837 13.1806 8.73103 12.6831 8.73103C12.1856 8.73103 11.7696 8.89837 11.4351 9.23303C11.1004 9.56753 10.9331 9.98353 10.9331 10.481C10.9331 10.9785 11.1004 11.3945 11.4351 11.729C11.7696 12.0637 12.1856 12.231 12.6831 12.231Z" fill="black"/>
</svg>
