<svg width="24" height="25" viewBox="0 0 24 25" fill="none" xmlns="http://www.w3.org/2000/svg">
<path d="M19.5423 21.5389L13.2616 15.2579C12.7616 15.6708 12.1866 15.9938 11.5366 16.2272C10.8866 16.4605 10.2141 16.5772 9.5193 16.5772C7.81014 16.5772 6.36364 15.9854 5.1798 14.8019C3.99597 13.6184 3.40405 12.1723 3.40405 10.4634C3.40405 8.75476 3.9958 7.3081 5.1793 6.12343C6.3628 4.93893 7.80897 4.34668 9.5178 4.34668C11.2265 4.34668 12.6731 4.9386 13.8578 6.12243C15.0423 7.30626 15.6346 8.75276 15.6346 10.4619C15.6346 11.1761 15.5147 11.8582 15.2751 12.5082C15.0352 13.1582 14.7153 13.7235 14.3153 14.2042L20.5961 20.4849L19.5423 21.5389ZM9.5193 15.0774C10.8078 15.0774 11.8991 14.6303 12.7933 13.7359C13.6876 12.8418 14.1348 11.7504 14.1348 10.4619C14.1348 9.17343 13.6876 8.0821 12.7933 7.18793C11.8991 6.2936 10.8078 5.84643 9.5193 5.84643C8.2308 5.84643 7.13947 6.2936 6.2453 7.18793C5.35097 8.0821 4.9038 9.17343 4.9038 10.4619C4.9038 11.7504 5.35097 12.8418 6.2453 13.7359C7.13947 14.6303 8.2308 15.0774 9.5193 15.0774Z" fill="#1D1D1E"/>
</svg>
