<svg width="25" height="25" viewBox="0 0 25 25" fill="none" xmlns="http://www.w3.org/2000/svg">
<path d="M6.99086 22.481C6.48569 22.481 6.05811 22.306 5.70811 21.956C5.35811 21.606 5.18311 21.1784 5.18311 20.6733V9.28878C5.18311 8.78362 5.35811 8.35603 5.70811 8.00603C6.05811 7.65603 6.48569 7.48103 6.99086 7.48103H8.93311V7.23103C8.93311 6.1952 9.29911 5.3112 10.0311 4.57903C10.7633 3.84703 11.6473 3.48103 12.6831 3.48103C13.7189 3.48103 14.6029 3.84703 15.3351 4.57903C16.0671 5.3112 16.4331 6.1952 16.4331 7.23103V7.48103H18.3754C18.8805 7.48103 19.3081 7.65603 19.6581 8.00603C20.0081 8.35603 20.1831 8.78362 20.1831 9.28878V20.6733C20.1831 21.1784 20.0081 21.606 19.6581 21.956C19.3081 22.306 18.8805 22.481 18.3754 22.481H6.99086ZM6.99086 20.981H18.3754C18.4524 20.981 18.5229 20.949 18.5869 20.8848C18.651 20.8208 18.6831 20.7503 18.6831 20.6733V9.28878C18.6831 9.21178 18.651 9.14128 18.5869 9.07728C18.5229 9.01312 18.4524 8.98103 18.3754 8.98103H16.4331V11.231C16.4331 11.4439 16.3613 11.622 16.2176 11.7655C16.0741 11.9092 15.8959 11.981 15.6831 11.981C15.4703 11.981 15.2921 11.9092 15.1486 11.7655C15.0049 11.622 14.9331 11.4439 14.9331 11.231V8.98103H10.4331V11.231C10.4331 11.4439 10.3613 11.622 10.2176 11.7655C10.0741 11.9092 9.89594 11.981 9.68311 11.981C9.47027 11.981 9.29211 11.9092 9.14861 11.7655C9.00494 11.622 8.93311 11.4439 8.93311 11.231V8.98103H6.99086C6.91386 8.98103 6.84336 9.01312 6.77936 9.07728C6.71519 9.14128 6.68311 9.21178 6.68311 9.28878V20.6733C6.68311 20.7503 6.71519 20.8208 6.77936 20.8848C6.84336 20.949 6.91386 20.981 6.99086 20.981ZM10.4331 7.48103H14.9331V7.23103C14.9331 6.6042 14.7149 6.07245 14.2784 5.63578C13.8419 5.19928 13.3101 4.98103 12.6831 4.98103C12.0561 4.98103 11.5244 5.19928 11.0879 5.63578C10.6514 6.07245 10.4331 6.6042 10.4331 7.23103V7.48103Z" fill="black"/>
</svg>
